<?xml version="1.0" standalone="no"?>
<!DOCTYPE svg PUBLIC "-//W3C//DTD SVG 20010904//EN"
 "http://www.w3.org/TR/2001/REC-SVG-20010904/DTD/svg10.dtd">
<svg version="1.0" xmlns="http://www.w3.org/2000/svg"
 width="1772.000000pt" height="1773.000000pt" viewBox="0 0 1772.000000 1773.000000"
 preserveAspectRatio="xMidYMid meet">

<g transform="translate(0.000000,1773.000000) scale(0.100000,-0.100000)"
fill="#000000" stroke="none">
<path d="M10404 14810 c-104 -55 -145 -59 -604 -60 -452 -1 -591 -9 -713 -45
-321 -93 -543 -340 -639 -713 -40 -155 -51 -369 -23 -452 23 -69 89 -140 158
-171 52 -24 52 -24 535 -27 651 -4 807 8 1004 82 245 92 447 285 562 539 77
168 156 477 156 608 0 159 -123 278 -287 279 -65 0 -79 -4 -149 -40z m-281
-671 c-30 -53 -107 -126 -161 -153 -102 -52 -148 -57 -554 -63 -208 -3 -378
-3 -378 1 0 21 57 113 91 147 54 54 118 81 209 89 41 4 241 8 443 8 l368 2
-18 -31z"/>
<path d="M8257 12925 c-82 -23 -155 -64 -216 -123 -42 -42 -392 -543 -1300
-1865 -684 -995 -1256 -1836 -1272 -1870 -70 -152 -54 -344 40 -481 42 -60
130 -140 188 -169 123 -63 294 -74 415 -28 77 30 170 93 212 144 19 23 541
780 1161 1682 620 902 1132 1645 1138 1652 9 9 48 6 162 -9 120 -17 206 -21
427 -22 l276 -1 68 -110 c343 -557 1044 -1586 1891 -2772 188 -264 314 -430
349 -462 200 -183 511 -174 704 19 154 154 194 385 99 573 -12 23 -158 233
-324 467 -588 827 -1028 1462 -1414 2040 -392 586 -539 823 -636 1023 -44 90
-71 131 -114 175 -98 99 -225 152 -365 152 -95 0 -167 -18 -251 -60 -48 -24
-77 -31 -150 -36 -150 -10 -507 24 -755 72 -138 26 -257 30 -333 9z"/>
<path d="M6490 7984 c-94 -25 -179 -73 -244 -138 -221 -222 -210 -582 24 -785
35 -31 98 -88 140 -126 41 -39 580 -485 1197 -990 1157 -949 1192 -975 1312
-1003 135 -31 309 -1 416 72 66 44 2323 2009 2396 2086 67 69 113 158 134 255
18 88 18 132 0 218 -44 210 -213 377 -423 418 -127 24 -289 -7 -390 -75 -26
-17 -484 -412 -1017 -876 -534 -465 -978 -851 -986 -858 -14 -10 -165 111
-1069 857 -597 493 -1078 883 -1110 900 -108 58 -262 76 -380 45z"/>
</g>
</svg>
